<svg width="32" height="24" viewBox="0 0 32 24" fill="none" xmlns="http://www.w3.org/2000/svg">
<g filter="url(#filter0_d)">
<path d="M19.75 4H12.25C10.062 4 7.96354 4.84286 6.41637 6.34315C4.86919 7.84344 4 9.87827 4 12C4 14.1217 4.86919 16.1566 6.41637 17.6569C7.96354 19.1571 10.062 20 12.25 20H19.75C21.938 20 24.0365 19.1571 25.5836 17.6569C27.1308 16.1566 28 14.1217 28 12C28 9.87827 27.1308 7.84344 25.5836 6.34315C24.0365 4.84286 21.938 4 19.75 4Z" fill="white"/>
<path d="M12.25 4.5H19.75C21.8103 4.5 23.7833 5.2938 25.2356 6.7021C26.6873 8.10989 27.5 10.0159 27.5 12C27.5 13.9841 26.6873 15.8901 25.2356 17.2979C23.7833 18.7062 21.8103 19.5 19.75 19.5H12.25C10.1897 19.5 8.21675 18.7062 6.76444 17.2979C5.31266 15.8901 4.5 13.9841 4.5 12C4.5 10.0159 5.31266 8.10989 6.76444 6.7021C8.21675 5.2938 10.1897 4.5 12.25 4.5Z" stroke="#0E8AFD"/>
</g>
<path d="M16.8486 15.1514V12.8486H19.1514C19.3764 12.8486 19.5923 12.7592 19.7514 12.6001C19.9106 12.4409 20 12.2251 20 12C20 11.7749 19.9106 11.5591 19.7514 11.3999C19.5923 11.2408 19.3764 11.1513 19.1514 11.1513H16.8486V8.84865C16.8486 8.62357 16.7592 8.40772 16.6001 8.24856C16.4409 8.08941 16.2251 8 16 8C15.7749 8 15.5591 8.08941 15.3999 8.24856C15.2408 8.40772 15.1513 8.62357 15.1513 8.84865V11.1514H12.8486C12.6236 11.1514 12.4077 11.2408 12.2486 11.3999C12.0894 11.5591 12 11.7749 12 12C12 12.2251 12.0894 12.4409 12.2486 12.6001C12.4077 12.7592 12.6236 12.8487 12.8486 12.8487H15.1514V15.1514C15.1514 15.3764 15.2408 15.5923 15.3999 15.7514C15.5591 15.9106 15.7749 16 16 16C16.2251 16 16.4409 15.9106 16.6001 15.7514C16.7592 15.5923 16.8487 15.3764 16.8487 15.1514H16.8486Z" fill="#0E8AFD"/>
<defs>
<filter id="filter0_d" x="0" y="0" width="32" height="24" filterUnits="userSpaceOnUse" color-interpolation-filters="sRGB">
<feFlood flood-opacity="0" result="BackgroundImageFix"/>
<feColorMatrix in="SourceAlpha" type="matrix" values="0 0 0 0 0 0 0 0 0 0 0 0 0 0 0 0 0 0 127 0"/>
<feOffset/>
<feGaussianBlur stdDeviation="2"/>
<feColorMatrix type="matrix" values="0 0 0 0 0 0 0 0 0 0 0 0 0 0 0 0 0 0 0.15 0"/>
<feBlend mode="normal" in2="BackgroundImageFix" result="effect1_dropShadow"/>
<feBlend mode="normal" in="SourceGraphic" in2="effect1_dropShadow" result="shape"/>
</filter>
</defs>
</svg>
