<svg width="20" height="20" viewBox="0 0 20 20" fill="none" xmlns="http://www.w3.org/2000/svg">
<path d="M19.5 10C19.5 15.2467 15.2467 19.5 10 19.5C4.7533 19.5 0.5 15.2467 0.5 10C0.5 4.7533 4.7533 0.5 10 0.5C15.2467 0.5 19.5 4.7533 19.5 10Z" stroke="#0E8AFD"/>
<mask id="path-2-inside-1" fill="white">
<path d="M10.3996 5.59961H9.59961V14.3996H10.3996V5.59961Z"/>
</mask>
<path d="M10.3996 5.59961H9.59961V14.3996H10.3996V5.59961Z" fill="#0E8AFD"/>
<path d="M9.59961 5.59961V4.59961H8.59961V5.59961H9.59961ZM10.3996 5.59961H11.3996V4.59961H10.3996V5.59961ZM10.3996 14.3996V15.3996H11.3996V14.3996H10.3996ZM9.59961 14.3996H8.59961V15.3996H9.59961V14.3996ZM9.59961 6.59961H10.3996V4.59961H9.59961V6.59961ZM9.39961 5.59961V14.3996H11.3996V5.59961H9.39961ZM10.3996 13.3996H9.59961V15.3996H10.3996V13.3996ZM10.5996 14.3996V5.59961H8.59961V14.3996H10.5996Z" fill="#0E8AFD" mask="url(#path-2-inside-1)"/>
<mask id="path-4-inside-2" fill="white">
<path d="M14.3996 9.59961H5.59961V10.3996H14.3996V9.59961Z"/>
</mask>
<path d="M14.3996 9.59961H5.59961V10.3996H14.3996V9.59961Z" fill="#0E8AFD"/>
<path d="M5.59961 9.59961V8.59961H4.59961V9.59961H5.59961ZM14.3996 9.59961H15.3996V8.59961H14.3996V9.59961ZM14.3996 10.3996V11.3996H15.3996V10.3996H14.3996ZM5.59961 10.3996H4.59961V11.3996H5.59961V10.3996ZM5.59961 10.5996H14.3996V8.59961H5.59961V10.5996ZM13.3996 9.59961V10.3996H15.3996V9.59961H13.3996ZM14.3996 9.39961H5.59961V11.3996H14.3996V9.39961ZM6.59961 10.3996V9.59961H4.59961V10.3996H6.59961Z" fill="#0E8AFD" mask="url(#path-4-inside-2)"/>
</svg>
