<svg width="12" height="12" viewBox="0 0 12 12" fill="none" xmlns="http://www.w3.org/2000/svg">
<path d="M10.222 8.8449L10.5935 8.51034H10.5935L10.222 8.8449ZM10.884 8.8796L10.5494 8.50802L10.884 8.8796ZM5.99439 4.14971L6.36596 3.81514L5.99439 3.40247L5.62282 3.81514L5.99439 4.14971ZM1.76682 8.8449L2.13839 9.17947L2.13839 9.17947L1.76682 8.8449ZM1.10482 8.8796L0.77025 9.25117V9.25117L1.10482 8.8796ZM1.07012 8.21759L1.44169 8.55216L1.44169 8.55216L1.07012 8.21759ZM5.62837 3.15515L5.2568 2.82058L5.25679 2.82058L5.62837 3.15515ZM5.99439 3.00037L5.9758 3.50003L5.99439 3.50072L6.01298 3.50003L5.99439 3.00037ZM6.36041 3.15515L6.73198 2.82058L6.73198 2.82058L6.36041 3.15515ZM10.9187 8.21759L11.2902 7.88303H11.2902L10.9187 8.21759ZM9.85039 9.17947C10.2084 9.57707 10.8209 9.60917 11.2185 9.25117L10.5494 8.50802C10.5622 8.49647 10.582 8.49751 10.5935 8.51034L9.85039 9.17947ZM5.62282 4.48427L9.85039 9.17947L10.5935 8.51034L6.36596 3.81514L5.62282 4.48427ZM5.62282 3.81514L1.39525 8.51034L2.13839 9.17947L6.36596 4.48427L5.62282 3.81514ZM1.39525 8.51034C1.4068 8.49751 1.42656 8.49647 1.43938 8.50802L0.77025 9.25117C1.16785 9.60917 1.78039 9.57707 2.13839 9.17947L1.39525 8.51034ZM1.43938 8.50802C1.45221 8.51957 1.45324 8.53933 1.44169 8.55216L0.69855 7.88303C0.340547 8.28063 0.372649 8.89317 0.77025 9.25117L1.43938 8.50802ZM1.44169 8.55216L5.99994 3.48971L5.25679 2.82058L0.698549 7.88303L1.44169 8.55216ZM5.99994 3.48971C5.99732 3.49262 5.99317 3.4957 5.9883 3.49771C5.9839 3.49953 5.97971 3.50017 5.9758 3.50003L6.01298 2.50072C5.73719 2.49046 5.4569 2.59834 5.2568 2.82058L5.99994 3.48971ZM6.73198 2.82058C6.53188 2.59834 6.2516 2.49046 5.9758 2.50072L6.01298 3.50003C6.00907 3.50017 6.00488 3.49953 6.00048 3.49771C5.99561 3.4957 5.99146 3.49262 5.98884 3.48971L6.73198 2.82058ZM11.2902 7.88303L6.73198 2.82058L5.98884 3.48971L10.5471 8.55216L11.2902 7.88303ZM11.2185 9.25117C11.6161 8.89317 11.6482 8.28063 11.2902 7.88303L10.5471 8.55216C10.5355 8.53933 10.5366 8.51957 10.5494 8.50802L11.2185 9.25117Z" fill="#0E8AFD"/>
</svg>
