<svg width="20" height="20" viewBox="0 0 20 20" fill="none" xmlns="http://www.w3.org/2000/svg">
<path d="M10 0C8.02219 0 6.08879 0.58649 4.4443 1.6853C2.79981 2.78412 1.51809 4.3459 0.761209 6.17316C0.00433284 8.00042 -0.1937 10.0111 0.192152 11.9509C0.578004 13.8907 1.53041 15.6725 2.92894 17.0711C4.32746 18.4696 6.10929 19.422 8.0491 19.8078C9.98891 20.1937 11.9996 19.9957 13.8268 19.2388C15.6541 18.4819 17.2159 17.2002 18.3147 15.5557C19.4135 13.9112 20 11.9778 20 10C20 8.68678 19.7413 7.38642 19.2388 6.17316C18.7362 4.95991 17.9997 3.85752 17.0711 2.92893C16.1425 2.00035 15.0401 1.26375 13.8268 0.761204C12.6136 0.258658 11.3132 0 10 0ZM10 19C8.21997 19 6.47991 18.4722 4.99987 17.4832C3.51983 16.4943 2.36628 15.0887 1.68509 13.4441C1.0039 11.7996 0.82567 9.99001 1.17294 8.24418C1.5202 6.49836 2.37737 4.89471 3.63604 3.63604C4.89471 2.37737 6.49836 1.5202 8.24419 1.17293C9.99002 0.825665 11.7996 1.0039 13.4442 1.68508C15.0887 2.36627 16.4943 3.51982 17.4832 4.99987C18.4722 6.47991 19 8.21997 19 10C19 12.3869 18.0518 14.6761 16.364 16.364C14.6761 18.0518 12.387 19 10 19Z" fill="#666666"/>
<path d="M12.854 7.14497C12.8075 7.09811 12.7522 7.06091 12.6913 7.03552C12.6304 7.01014 12.565 6.99707 12.499 6.99707C12.433 6.99707 12.3676 7.01014 12.3067 7.03552C12.2458 7.06091 12.1905 7.09811 12.144 7.14497L9.99899 9.29497L7.85399 7.14497C7.80737 7.09835 7.75203 7.06137 7.69112 7.03614C7.63021 7.01091 7.56492 6.99792 7.49899 6.99792C7.43306 6.99792 7.36778 7.01091 7.30687 7.03614C7.24596 7.06137 7.19061 7.09835 7.14399 7.14497C7.09737 7.19159 7.06039 7.24693 7.03516 7.30785C7.00993 7.36876 6.99695 7.43404 6.99695 7.49997C6.99695 7.5659 7.00993 7.63118 7.03516 7.69209C7.06039 7.753 7.09737 7.80835 7.14399 7.85497L9.29399 9.99997L7.14399 12.145C7.09713 12.1915 7.05993 12.2467 7.03455 12.3077C7.00916 12.3686 6.99609 12.434 6.99609 12.5C6.99609 12.566 7.00916 12.6313 7.03455 12.6923C7.05993 12.7532 7.09713 12.8085 7.14399 12.855C7.19047 12.9018 7.24577 12.939 7.3067 12.9644C7.36763 12.9898 7.43299 13.0029 7.49899 13.0029C7.565 13.0029 7.63035 12.9898 7.69128 12.9644C7.75221 12.939 7.80751 12.9018 7.85399 12.855L9.99899 10.705L12.144 12.855C12.1905 12.9018 12.2458 12.939 12.3067 12.9644C12.3676 12.9898 12.433 13.0029 12.499 13.0029C12.565 13.0029 12.6304 12.9898 12.6913 12.9644C12.7522 12.939 12.8075 12.9018 12.854 12.855C12.9009 12.8085 12.9381 12.7532 12.9634 12.6923C12.9888 12.6313 13.0019 12.566 13.0019 12.5C13.0019 12.434 12.9888 12.3686 12.9634 12.3077C12.9381 12.2467 12.9009 12.1915 12.854 12.145L10.704 9.99997L12.854 7.85497C12.9009 7.80849 12.9381 7.75319 12.9634 7.69226C12.9888 7.63133 13.0019 7.56598 13.0019 7.49997C13.0019 7.43396 12.9888 7.36861 12.9634 7.30768C12.9381 7.24675 12.9009 7.19145 12.854 7.14497Z" fill="#666666"/>
</svg>
