<svg width="30" height="30" viewBox="0 0 30 30" fill="none" xmlns="http://www.w3.org/2000/svg">
<path d="M24.5867 12.7182H24.4785C24.1867 10.7264 23.255 8.88036 21.8213 7.45305C20.3876 6.02574 18.5279 5.09293 16.5172 4.79253C14.5064 4.49214 12.4514 4.8401 10.6559 5.78498C8.86043 6.72986 7.41978 8.22149 6.54698 10.0393C4.75237 10.098 3.05479 10.8598 1.82768 12.1572C0.600576 13.4546 -0.0555347 15.1814 0.00368755 16.9576C0.0629098 18.7338 0.832613 20.414 2.14347 21.6285C3.45433 22.8431 5.19897 23.4925 6.99358 23.4339H24.5867C26.0224 23.4339 27.3993 22.8694 28.4145 21.8646C29.4297 20.8598 30 19.497 30 18.076C30 16.6551 29.4297 15.2923 28.4145 14.2875C27.3993 13.2827 26.0224 12.7182 24.5867 12.7182ZM24.5867 22.0944H6.99358C5.55789 22.0944 4.181 21.5299 3.16582 20.5251C2.15063 19.5204 1.5803 18.1576 1.5803 16.7366C1.5803 15.3156 2.15063 13.9528 3.16582 12.9481C4.181 11.9433 5.55789 11.3788 6.99358 11.3788C7.12717 11.3781 7.25757 11.3384 7.36835 11.2645C7.47914 11.1906 7.56534 11.0859 7.61611 10.9636C8.32992 9.30943 9.58374 7.94011 11.1769 7.07476C12.7701 6.2094 14.6105 5.89803 16.4037 6.19048C18.1968 6.48293 19.839 7.36229 21.0674 8.68783C22.2958 10.0134 23.0394 11.7085 23.1793 13.5018C23.1847 13.595 23.2098 13.6861 23.253 13.7691C23.2961 13.8522 23.3563 13.9254 23.4296 13.984C23.5034 14.0413 23.5885 14.0828 23.6793 14.1059C23.7702 14.129 23.8649 14.1331 23.9574 14.118C24.1654 14.0827 24.3758 14.0626 24.5867 14.0577C25.6635 14.0577 26.6962 14.4811 27.4575 15.2346C28.2189 15.9882 28.6467 17.0103 28.6467 18.076C28.6467 19.1418 28.2189 20.1639 27.4575 20.9175C26.6962 21.671 25.6635 22.0944 24.5867 22.0944Z" fill="#0E8AFD"/>
</svg>
