<svg width="12" height="12" viewBox="0 0 12 12" fill="none" xmlns="http://www.w3.org/2000/svg">
<path d="M1.77804 3.1551L1.40647 3.48966L1.40647 3.48966L1.77804 3.1551ZM1.11604 3.1204L1.4506 3.49198L1.11604 3.1204ZM6.00561 7.85029L5.63404 8.18485L6.00561 8.59753L6.37718 8.18485L6.00561 7.85029ZM10.2332 3.1551L9.8616 2.82053V2.82053L10.2332 3.1551ZM10.8952 3.1204L11.2297 2.74883L11.2297 2.74883L10.8952 3.1204ZM10.9299 3.78241L10.5583 3.44784V3.44784L10.9299 3.78241ZM6.37163 8.84485L6.7432 9.17942H6.7432L6.37163 8.84485ZM6.00561 8.99963L6.02419 8.49997L6.00561 8.49928L5.98702 8.49997L6.00561 8.99963ZM5.63959 8.84485L5.26802 9.17942L5.63959 8.84485ZM1.08134 3.78241L0.70977 4.11697H0.70977L1.08134 3.78241ZM2.14961 2.82053C1.79161 2.42293 1.17907 2.39083 0.781471 2.74883L1.4506 3.49198C1.43778 3.50353 1.41802 3.50249 1.40647 3.48966L2.14961 2.82053ZM6.37718 7.51572L2.14961 2.82053L1.40647 3.48966L5.63404 8.18485L6.37718 7.51572ZM6.37718 8.18485L10.6047 3.48966L9.8616 2.82053L5.63404 7.51572L6.37718 8.18485ZM10.6047 3.48966C10.5932 3.50249 10.5734 3.50353 10.5606 3.49198L11.2297 2.74883C10.8321 2.39083 10.2196 2.42293 9.8616 2.82053L10.6047 3.48966ZM10.5606 3.49198C10.5478 3.48043 10.5468 3.46067 10.5583 3.44784L11.3014 4.11697C11.6595 3.71937 11.6273 3.10683 11.2297 2.74883L10.5606 3.49198ZM10.5583 3.44784L6.00006 8.51029L6.7432 9.17942L11.3014 4.11697L10.5583 3.44784ZM6.00006 8.51029C6.00267 8.50738 6.00683 8.5043 6.01169 8.50229C6.01609 8.50047 6.02029 8.49983 6.02419 8.49997L5.98702 9.49928C6.26281 9.50954 6.5431 9.40165 6.7432 9.17942L6.00006 8.51029ZM5.26802 9.17942C5.46812 9.40165 5.7484 9.50954 6.02419 9.49928L5.98702 8.49997C5.99093 8.49983 5.99512 8.50047 5.99952 8.50229C6.00439 8.5043 6.00854 8.50738 6.01116 8.51029L5.26802 9.17942ZM0.70977 4.11697L5.26802 9.17942L6.01116 8.51029L1.45291 3.44784L0.70977 4.11697ZM0.781471 2.74883C0.383869 3.10683 0.351768 3.71937 0.70977 4.11697L1.45291 3.44784C1.46446 3.46067 1.46343 3.48043 1.4506 3.49198L0.781471 2.74883Z" fill="#666666"/>
</svg>
