<svg width="30" height="30" viewBox="0 0 30 30" fill="none" xmlns="http://www.w3.org/2000/svg">
<path fill-rule="evenodd" clip-rule="evenodd" d="M24.4712 23.6142L27.6037 20.4818C27.9288 20.1567 28.4607 20.1567 28.7562 20.4818C29.0813 20.7773 29.0813 21.3092 28.7562 21.6343L25.6238 24.7668L26.1852 25.3282C26.4216 25.5646 26.4216 25.9488 26.1852 26.1852C25.9488 26.4216 25.5646 26.4216 25.3282 26.1852L24.7668 25.6238L21.6343 28.7562C21.3388 29.0813 20.8069 29.0813 20.4818 28.7562C20.1567 28.4607 20.1567 27.9288 20.4818 27.6037L23.6143 24.4712L22.6391 23.4961L22.5504 23.5847C22.314 23.8211 21.9594 23.8211 21.723 23.5847L18.9747 20.8364C18.4427 20.3045 17.7335 20.009 16.9947 20.009H13.0053C12.2665 20.009 11.5573 20.3045 11.0253 20.8364L8.27704 23.5847C8.04063 23.8211 7.68602 23.8211 7.44961 23.5847L7.36096 23.4961L6.38576 24.4712L9.51821 27.6037C9.84327 27.8992 9.84327 28.4311 9.51821 28.7562C9.22269 29.0813 8.69076 29.0813 8.36569 28.7562L5.23325 25.6238L4.67176 26.1852C4.43535 26.4216 4.05119 26.4216 3.81478 26.1852C3.57837 25.9488 3.57837 25.5646 3.81478 25.3282L4.37625 24.7668L1.2438 21.6343C0.918733 21.3388 0.918733 20.8069 1.2438 20.4818C1.53931 20.1567 2.07125 20.1567 2.39631 20.4818L5.52876 23.6142L6.50396 22.6391L6.41531 22.5504C6.17889 22.314 6.17889 21.9594 6.41531 21.723L9.16359 18.9747C9.69551 18.4427 9.99102 17.7335 9.99102 16.9947V13.0053C9.99102 12.2665 9.69551 11.5573 9.16359 11.0253L6.41531 8.27704C6.17889 8.04063 6.17889 7.68602 6.41531 7.44961L6.50396 7.36096L5.52876 6.38576L2.39631 9.51821C2.1008 9.84327 1.56887 9.84327 1.2438 9.51821C0.918733 9.22269 0.918733 8.69076 1.2438 8.36569L4.37625 5.23325L3.81478 4.67176C3.57837 4.43535 3.57837 4.05119 3.81478 3.81478C4.05119 3.57837 4.43535 3.57837 4.67176 3.81478L5.23325 4.37625L8.36569 1.2438C8.66121 0.918733 9.19314 0.918733 9.51821 1.2438C9.84327 1.53931 9.84327 2.07125 9.51821 2.39631L6.38576 5.52876L7.36096 6.50396L7.44961 6.41531C7.68602 6.17889 8.04063 6.17889 8.27704 6.41531L11.0253 9.16359C11.5573 9.69551 12.2665 9.99102 13.0053 9.99102H16.9947C17.7335 9.99102 18.4427 9.69551 18.9747 9.16359L21.723 6.41531C21.9594 6.17889 22.314 6.17889 22.5504 6.41531L22.6391 6.50396L23.6143 5.52876L20.4818 2.39631C20.1567 2.1008 20.1567 1.56887 20.4818 1.2438C20.7773 0.918733 21.3092 0.918733 21.6343 1.2438L24.7668 4.37625L25.3282 3.81478C25.5646 3.57837 25.9488 3.57837 26.1852 3.81478C26.4216 4.05119 26.4216 4.43535 26.1852 4.67176L25.6238 5.23325L28.7562 8.36569C29.0813 8.66121 29.0813 9.19314 28.7562 9.51821C28.4607 9.84327 27.9288 9.84327 27.6037 9.51821L24.4712 6.38576L23.496 7.36096L23.5847 7.44961C23.8211 7.68602 23.8211 8.04063 23.5847 8.27704L20.8364 11.0253C20.3045 11.5573 20.009 12.2665 20.009 13.0053V16.9947C20.009 17.7335 20.3045 18.4427 20.8364 18.9747L23.5847 21.723C23.8211 21.9594 23.8211 22.314 23.5847 22.5504L23.496 22.6391L24.4712 23.6142ZM13.999 12.0002C12.8945 12.0002 11.999 12.8957 11.999 14.0002V16.0002C11.999 17.1048 12.8945 18.0002 13.999 18.0002H15.999C17.1036 18.0002 17.999 17.1048 17.999 16.0002V14.0002C17.999 12.8957 17.1036 12.0002 15.999 12.0002H13.999Z" fill="#0E8AFD"/>
</svg>
