<svg width="19" height="19" viewBox="0 0 19 19" fill="none" xmlns="http://www.w3.org/2000/svg">
<path d="M18.8435 2.40018L16.7327 0.165271C16.6837 0.112902 16.6253 0.0713359 16.561 0.0429701C16.4967 0.0146043 16.4277 0 16.3581 0C16.2884 0 16.2195 0.0146043 16.1551 0.0429701C16.0908 0.0713359 16.0325 0.112902 15.9834 0.165271L9.65109 6.87C9.60218 6.9222 9.56349 6.98412 9.53723 7.05219C9.51097 7.12027 9.49765 7.19316 9.49806 7.26669V9.5016C9.49806 9.64978 9.55365 9.7919 9.65261 9.89668C9.75158 10.0015 9.8858 10.0603 10.0258 10.0603H12.1365C12.206 10.0608 12.2748 10.0467 12.3391 10.0189C12.4034 9.99105 12.4619 9.95008 12.5112 9.8983L18.8435 3.19357C18.893 3.14163 18.9322 3.07983 18.959 3.01175C18.9858 2.94366 18.9996 2.87063 18.9996 2.79688C18.9996 2.72312 18.9858 2.65009 18.959 2.582C18.9322 2.51392 18.893 2.45212 18.8435 2.40018ZM11.9202 8.94287H10.5534V7.49577L16.3581 1.34977L17.7248 2.79688L11.9202 8.94287Z" fill="#333333"/>
<path d="M17.4139 8.94274C17.274 8.94274 17.1398 9.00161 17.0408 9.10639C16.9418 9.21117 16.8862 9.35328 16.8862 9.50147V16.7649C16.8862 17.0613 16.775 17.3455 16.5771 17.5551C16.3792 17.7646 16.1108 17.8824 15.8308 17.8824H2.11078C1.83087 17.8824 1.56243 17.7646 1.36451 17.5551C1.16658 17.3455 1.05539 17.0613 1.05539 16.7649V5.59038C1.05539 5.29401 1.16658 5.00978 1.36451 4.80022C1.56243 4.59065 1.83087 4.47292 2.11078 4.47292H7.91542C8.05538 4.47292 8.1896 4.41406 8.28856 4.30928C8.38752 4.20449 8.44312 4.06238 8.44312 3.9142C8.44312 3.76601 8.38752 3.6239 8.28856 3.51912C8.1896 3.41433 8.05538 3.35547 7.91542 3.35547H2.11078C1.55097 3.35547 1.01408 3.59093 0.618233 4.01006C0.222385 4.42918 0 4.99764 0 5.59038V16.7649C0 17.3577 0.222385 17.9261 0.618233 18.3452C1.01408 18.7644 1.55097 18.9998 2.11078 18.9998H15.8308C16.3907 18.9998 16.9275 18.7644 17.3234 18.3452C17.7192 17.9261 17.9416 17.3577 17.9416 16.7649V9.50147C17.9416 9.35328 17.886 9.21117 17.7871 9.10639C17.6881 9.00161 17.5539 8.94274 17.4139 8.94274Z" fill="#333333"/>
</svg>
