<svg width="20" height="18" viewBox="0 0 20 18" fill="none" xmlns="http://www.w3.org/2000/svg">
<path fill-rule="evenodd" clip-rule="evenodd" d="M17.6686 6.29137H16.8139V4.66326C16.8139 4.2143 16.4306 3.8492 15.9592 3.8492H10.4037C10.3037 3.8492 10.2071 3.81582 10.1302 3.75518L7.68486 1.81406H2.71135C2.23999 1.81406 1.85665 2.17916 1.85665 2.62811V5.47731H17.6686V6.29137H1.85665H1.00195V2.62811C1.00195 1.73021 1.76862 1 2.71135 1H7.83956C7.93956 1 8.03614 1.03338 8.11306 1.09402L10.5584 3.03514H15.9592C16.902 3.03514 17.6686 3.76535 17.6686 4.66326V6.29137Z" fill="#F5C109"/>
<path d="M17.6686 6.29137H16.8139V4.66326C16.8139 4.2143 16.4306 3.8492 15.9592 3.8492H10.4037C10.3037 3.8492 10.2071 3.81582 10.1302 3.75518L7.68486 1.81406H2.71135C2.23999 1.81406 1.85665 2.17916 1.85665 2.62811V5.47731H17.6686V6.29137H1.85665H1.00195V2.62811C1.00195 1.73021 1.76862 1 2.71135 1H7.83956C7.93956 1 8.03614 1.03338 8.11306 1.09402L10.5584 3.03514H15.9592C16.902 3.03514 17.6686 3.76535 17.6686 4.66326V6.29137Z" stroke="white" stroke-width="0.2"/>
<rect x="1.00195" y="4.93555" width="18" height="12.0643" rx="2" fill="#FAE084" stroke="#F5C109"/>
</svg>
