<svg width="13" height="13" viewBox="0 0 13 13" fill="none" xmlns="http://www.w3.org/2000/svg">
<circle cx="6.5" cy="6.5" r="6.5" fill="#E6E6E6"/>
<path d="M6.71045 3.94434C6.71045 3.74512 6.76758 3.58398 6.88184 3.46094C6.99609 3.33789 7.15723 3.27637 7.36523 3.27637C7.52051 3.27637 7.64648 3.31592 7.74316 3.39502C7.83984 3.47119 7.88818 3.58838 7.88818 3.74658C7.88818 3.95459 7.82959 4.11865 7.7124 4.23877C7.59521 4.35889 7.44141 4.41895 7.25098 4.41895C7.0957 4.41895 6.9668 4.38086 6.86426 4.30469C6.76172 4.22852 6.71045 4.1084 6.71045 3.94434ZM6.50391 10H5.4668L6.50391 5.13965H7.53662L6.50391 10Z" fill="#0E8AFD"/>
</svg>
