<svg width="15" height="13" viewBox="0 0 15 13" fill="none" xmlns="http://www.w3.org/2000/svg">
<path fill-rule="evenodd" clip-rule="evenodd" d="M13.125 12.0714H1.875C1.3575 12.0714 0.9375 11.6536 0.9375 11.1429C0.9375 10.6321 1.3575 10.2143 1.875 10.2143H13.125C13.6425 10.2143 14.0625 10.6321 14.0625 11.1429C14.0625 11.6536 13.6425 12.0714 13.125 12.0714ZM13.125 9.28571H1.875C0.839531 9.28571 0 10.1168 0 11.1429C0 12.1689 0.839531 13 1.875 13H13.125C14.1605 13 15 12.1689 15 11.1429C15 10.1168 14.1605 9.28571 13.125 9.28571ZM13.125 7.42857H1.875C1.3575 7.42857 0.9375 7.01071 0.9375 6.5C0.9375 5.98929 1.3575 5.57143 1.875 5.57143H13.125C13.6425 5.57143 14.0625 5.98929 14.0625 6.5C14.0625 7.01071 13.6425 7.42857 13.125 7.42857ZM13.125 4.64286H1.875C0.839531 4.64286 0 5.47393 0 6.5C0 7.52607 0.839531 8.35714 1.875 8.35714H13.125C14.1605 8.35714 15 7.52607 15 6.5C15 5.47393 14.1605 4.64286 13.125 4.64286ZM1.875 0.928571H13.125C13.6425 0.928571 14.0625 1.34643 14.0625 1.85714C14.0625 2.36786 13.6425 2.78571 13.125 2.78571H1.875C1.3575 2.78571 0.9375 2.36786 0.9375 1.85714C0.9375 1.34643 1.3575 0.928571 1.875 0.928571ZM1.875 3.71429H13.125C14.1605 3.71429 15 2.88321 15 1.85714C15 0.831071 14.1605 0 13.125 0H1.875C0.839531 0 0 0.831071 0 1.85714C0 2.88321 0.839531 3.71429 1.875 3.71429Z" fill="#909090"/>
</svg>
