<svg width="15" height="11" viewBox="0 0 15 11" fill="none" xmlns="http://www.w3.org/2000/svg">
<path d="M13.2172 0.348167L5.92101 8.7083L1.7132 4.84907C1.52499 4.67646 1.26973 4.57948 1.00357 4.57948C0.737405 4.57948 0.482145 4.67646 0.293939 4.84907C0.105733 5.02169 5.24671e-09 5.2558 0 5.49991C-5.24671e-09 5.74403 0.105733 5.97814 0.293939 6.15076L5.29133 10.7342C5.48287 10.9017 5.73633 10.9966 6.00096 11H6.06093C6.20003 10.9926 6.33591 10.9586 6.45984 10.9002C6.58377 10.8418 6.69301 10.7602 6.78056 10.6608L14.7764 1.49402C14.8594 1.40025 14.9214 1.29236 14.9588 1.17655C14.9962 1.06074 15.0083 0.939286 14.9944 0.819175C14.9805 0.699063 14.9408 0.582661 14.8776 0.476659C14.8145 0.370657 14.7291 0.277145 14.6265 0.201498C14.5236 0.125864 14.4055 0.0696403 14.2788 0.0360616C14.1522 0.00248287 14.0195 -0.00778742 13.8886 0.00584522C13.7576 0.0194779 13.6308 0.0567439 13.5156 0.115495C13.4004 0.174245 13.299 0.25332 13.2172 0.348167Z" fill="#666666"/>
</svg>
