<svg width="13" height="10" viewBox="0 0 13 10" fill="none" xmlns="http://www.w3.org/2000/svg">
<path d="M11.4549 0.316515L5.13154 7.91663L1.48477 4.40825C1.32166 4.25133 1.10043 4.16317 0.869759 4.16317C0.639085 4.16317 0.417859 4.25133 0.254747 4.40825C0.0916356 4.56517 4.54714e-09 4.778 0 4.99992C-4.54714e-09 5.22184 0.0916356 5.43468 0.254747 5.5916L4.58582 9.75833C4.75182 9.91061 4.97149 9.99693 5.20083 10H5.25281C5.37336 9.99327 5.49112 9.96236 5.59853 9.90926C5.70593 9.85616 5.80061 9.78204 5.87648 9.69166L12.8062 1.3582C12.8782 1.27296 12.9319 1.17488 12.9643 1.06959C12.9967 0.964307 13.0072 0.853896 12.9951 0.744704C12.9831 0.635512 12.9487 0.529692 12.894 0.433326C12.8392 0.336961 12.7653 0.25195 12.6763 0.18318C12.5871 0.114422 12.4847 0.0633094 12.375 0.0327833C12.2652 0.00225715 12.1503 -0.00707947 12.0367 0.00531384C11.9232 0.0177071 11.8134 0.0515853 11.7135 0.104995C11.6137 0.158405 11.5258 0.230291 11.4549 0.316515Z" fill="#32D296"/>
</svg>
