<svg width="24" height="5" viewBox="0 0 24 5" fill="none" xmlns="http://www.w3.org/2000/svg">
<path fill-rule="evenodd" clip-rule="evenodd" d="M20.4355 5C19.0188 5 17.8691 3.881 17.8691 2.5C17.8691 1.119 19.0188 0 20.4355 0C21.8533 0 23.002 1.119 23.002 2.5C23.002 3.881 21.8533 5 20.4355 5ZM11.485 5C10.0767 5 8.93552 3.881 8.93552 2.5C8.93552 1.119 10.0767 0 11.485 0C12.8933 0 14.0345 1.119 14.0345 2.5C14.0345 3.881 12.8933 5 11.485 5ZM2.56838 5C1.15059 5 0.00195312 3.881 0.00195312 2.5C0.00195312 1.119 1.15059 0 2.56838 0C3.98511 0 5.13481 1.119 5.13481 2.5C5.13481 3.881 3.98511 5 2.56838 5Z" fill="#E6E6E6"/>
</svg>
