<svg width="30" height="30" viewBox="0 0 30 30" fill="none" xmlns="http://www.w3.org/2000/svg">
<path d="M25.7209 1H15.0193H14.9807H4.27911C2.47093 1 1 2.47316 1 4.28407V14.9595V15.0405V25.7159C1 27.5268 2.47093 29 4.27911 29H14.9807H15.0193H25.7209C27.5291 29 29 27.5268 29 25.7159V15.0405V14.9595V4.28407C29 2.47316 27.5291 1 25.7209 1ZM27.7556 4.28407V14.3363H24.5813C24.6115 14.183 24.6289 14.0272 24.6348 13.8693C24.6354 13.8577 24.636 13.8462 24.6367 13.8347C24.6373 13.8107 24.6407 13.7867 24.6407 13.7627C24.6407 13.7478 24.6385 13.7334 24.6382 13.7185C24.6395 13.5976 24.636 13.4757 24.623 13.353C24.4752 11.9904 23.3816 10.8896 22.0224 10.7354C20.2354 10.5316 18.7178 11.9331 18.7178 13.6817C18.7178 13.6886 18.7187 13.6951 18.719 13.7019C18.7144 13.9176 18.7343 14.1294 18.775 14.3363H15.6415V10.2914C15.6415 10.062 15.5155 9.8508 15.3136 9.74237C15.2088 9.68628 15.0927 9.66385 14.9782 9.67132C14.8591 9.67195 14.7402 9.70373 14.6369 9.77197C14.4322 9.90813 14.2017 9.99599 13.9593 10.0321C13.955 10.0328 13.9509 10.0334 13.9466 10.034C13.8903 10.0421 13.8327 10.044 13.7752 10.0465C13.7005 10.0477 13.6255 10.0493 13.5493 10.0409C12.7628 9.95549 12.1272 9.32235 12.0379 8.5353C11.9813 8.03646 12.1322 7.55818 12.4623 7.18802C12.751 6.86397 13.1504 6.66331 13.577 6.62125C13.6501 6.61595 13.7229 6.61221 13.7944 6.61595C13.8081 6.61626 13.8215 6.61813 13.8349 6.61876C14.1236 6.64057 14.3971 6.73248 14.6369 6.8917C14.7402 6.96025 14.8591 6.99203 14.9782 6.99234C15.0927 6.99982 15.2088 6.97739 15.3136 6.92099C15.5155 6.81256 15.6415 6.60162 15.6415 6.37198V2.24633H25.7209C26.8428 2.24633 27.7556 3.16051 27.7556 4.28407ZM4.27911 2.24633H14.3585V5.43256C14.2216 5.40328 14.0819 5.38645 13.9407 5.3771C13.8956 5.37336 13.8501 5.37118 13.8044 5.36963C13.7839 5.36931 13.7636 5.3662 13.7431 5.3662C13.731 5.3662 13.7195 5.36807 13.7073 5.36807C13.5981 5.36807 13.488 5.37181 13.3763 5.38396C12.0158 5.53196 10.9167 6.62717 10.7627 7.98816C10.6672 8.83192 10.9341 9.67693 11.495 10.306C12.0308 10.9067 12.788 11.2595 13.5869 11.2916C13.619 11.2931 13.6513 11.2959 13.6831 11.2965C13.6902 11.2965 13.6974 11.2978 13.7045 11.2978C13.7167 11.2978 13.7288 11.2959 13.7409 11.2956C13.9509 11.2959 14.1569 11.2747 14.3582 11.2317V14.3363H10.277C10.0477 14.3363 9.83711 14.4625 9.72884 14.6647C9.67036 14.7741 9.64951 14.8956 9.6604 15.0146C9.65511 15.1436 9.68467 15.2733 9.75871 15.3848C9.9264 15.6384 10.0179 15.9319 10.0322 16.2376C10.0322 16.3002 10.034 16.3622 10.0275 16.4258C10.0272 16.4292 10.0269 16.4323 10.0266 16.4358C9.93947 17.2216 9.30853 17.8563 8.52422 17.9451C7.98724 18.0061 7.47889 17.8248 7.10711 17.4521C6.79507 17.1393 6.62209 16.7268 6.60933 16.2878C6.61493 15.9637 6.70484 15.6546 6.88373 15.3848C6.95747 15.2733 6.98733 15.144 6.98204 15.015C6.99262 14.8956 6.97209 14.7741 6.9136 14.6647C6.80502 14.4625 6.59471 14.3363 6.36542 14.3363H2.24444V4.28407C2.24444 3.16051 3.15724 2.24633 4.27911 2.24633ZM2.24444 25.7159V15.6637H5.41871C5.38853 15.817 5.37111 15.9728 5.3652 16.1307C5.36458 16.1423 5.36396 16.1538 5.36333 16.1653C5.36271 16.1893 5.35929 16.2133 5.35929 16.2373C5.35929 16.2535 5.36147 16.2691 5.36178 16.2853C5.36053 16.4049 5.36396 16.5255 5.37733 16.647C5.52511 18.0096 6.61867 19.1104 7.97791 19.2646C8.09365 19.2777 8.20782 19.2843 8.32107 19.2843C9.11222 19.2843 9.8564 18.9752 10.4158 18.4143C10.9748 17.8538 11.2825 17.1094 11.2825 16.3186C11.2825 16.3118 11.2816 16.3052 11.2813 16.2984C11.286 16.0827 11.266 15.8709 11.2253 15.664H14.3585V19.7089C14.3585 19.9383 14.4845 20.1495 14.6864 20.2579C14.7909 20.314 14.907 20.3365 15.0212 20.329C15.1409 20.3287 15.2601 20.2969 15.3634 20.228C15.5668 20.0928 15.7961 20.0056 16.0366 19.9688C16.0435 19.9679 16.0503 19.9666 16.0575 19.9657C16.1119 19.9582 16.1676 19.956 16.223 19.9538C16.2986 19.9523 16.3739 19.951 16.451 19.9591C17.2375 20.0445 17.8731 20.6776 17.9624 21.4647C18.019 21.9635 17.8681 22.4418 17.538 22.812C17.2496 23.1354 16.8511 23.3361 16.4255 23.3784C16.3508 23.3837 16.2762 23.3875 16.2031 23.3834C16.1916 23.3831 16.18 23.3816 16.1685 23.3809C15.8786 23.3597 15.6042 23.2675 15.3634 23.108C15.2601 23.0394 15.1416 23.0077 15.0224 23.0073C14.9079 22.9996 14.7916 23.022 14.6867 23.0787C14.4848 23.1871 14.3588 23.3981 14.3588 23.6277V27.7537H4.27911C3.15724 27.7537 2.24444 26.8395 2.24444 25.7159ZM25.7209 27.7537H15.6415V24.5674C15.7796 24.597 15.9206 24.6139 16.0628 24.6232C16.1054 24.6266 16.1483 24.6288 16.1912 24.6304C16.213 24.631 16.2348 24.6341 16.2566 24.6341C16.2693 24.6341 16.2818 24.6322 16.2945 24.6319C16.4031 24.6319 16.5123 24.6282 16.6231 24.616C17.9836 24.468 19.0827 23.3728 19.2367 22.0118C19.3322 21.1681 19.0653 20.3231 18.5044 19.694C17.9668 19.0914 17.2067 18.738 16.405 18.7081C16.3764 18.7066 16.3477 18.7041 16.3191 18.7035C16.311 18.7035 16.3032 18.7022 16.2952 18.7022C16.2812 18.7022 16.2678 18.7044 16.2538 18.7044C16.0456 18.7044 15.8412 18.7256 15.6415 18.7683V15.6637H19.723C19.7239 15.6637 19.7252 15.6637 19.7261 15.6637C20.0783 15.6568 20.3514 15.3857 20.3514 15.0405C20.3514 15.0087 20.3477 14.9779 20.343 14.9473C20.3408 14.8311 20.3082 14.7158 20.2416 14.6155C20.0724 14.3594 19.9806 14.0624 19.9675 13.7537C19.9678 13.6923 19.9663 13.6309 19.9731 13.5686C20.0584 12.7809 20.6905 12.144 21.4764 12.0549C22.4698 11.9428 23.3204 12.6828 23.3897 13.6381C23.3984 13.9892 23.3095 14.3251 23.1172 14.6155C23.0435 14.7271 23.0136 14.8564 23.0189 14.9854C23.0083 15.1047 23.0288 15.2262 23.0873 15.3356C23.1959 15.5378 23.4062 15.664 23.6355 15.664H27.7556V25.7162C27.7556 26.8395 26.8428 27.7537 25.7209 27.7537Z" fill="#0E8AFD"/>
</svg>
