<svg width="35" height="32" viewBox="0 0 35 32" fill="none" xmlns="http://www.w3.org/2000/svg">
<path fill-rule="evenodd" clip-rule="evenodd" d="M8.10893 2.69649C10.7401 0.938383 13.8336 0 16.9981 0C19.0992 0 21.1798 0.413852 23.121 1.21793C25.0622 2.022 26.826 3.20055 28.3118 4.68629C29.3026 5.67713 30.1568 6.79166 30.8545 8H28.9714C28.9713 7.99993 28.9713 7.99986 28.9712 7.99979C27.3889 5.63172 25.1399 3.78604 22.5087 2.69613C19.8774 1.60623 16.9821 1.32106 14.1888 1.87669C11.3954 2.43232 8.82959 3.80378 6.81571 5.81766C4.80184 7.83154 3.43037 10.3974 2.87475 13.1907C2.31912 15.984 2.60429 18.8794 3.69419 21.5106C4.78409 24.1419 6.62977 26.3909 8.99784 27.9732C11.088 29.3698 13.5023 30.1916 15.9986 30.3653V31.9688C15.2886 31.9243 14.5797 31.8324 13.8766 31.6926C10.7729 31.0752 7.92198 29.5513 5.68434 27.3137C3.4467 25.0761 1.92285 22.2251 1.30549 19.1214C0.688126 16.0177 1.00498 12.8007 2.21598 9.87706C3.42698 6.95344 5.47774 4.45459 8.10893 2.69649Z" fill="#32D296"/>
</svg>
