<svg width="32" height="32" viewBox="0 0 32 32" fill="none" xmlns="http://www.w3.org/2000/svg">
<path d="M16 0C12.8355 0 9.74207 0.938383 7.11088 2.69649C4.4797 4.45459 2.42894 6.95344 1.21793 9.87706C0.00693254 12.8007 -0.309921 16.0177 0.307443 19.1214C0.924806 22.2251 2.44866 25.0761 4.6863 27.3137C6.92394 29.5513 9.77487 31.0752 12.8786 31.6926C15.9823 32.3099 19.1993 31.9931 22.1229 30.7821C25.0466 29.5711 27.5454 27.5203 29.3035 24.8891C31.0616 22.2579 32 19.1645 32 16C32 13.8988 31.5861 11.8183 30.7821 9.87706C29.978 7.93585 28.7994 6.17203 27.3137 4.68629C25.828 3.20055 24.0641 2.022 22.1229 1.21793C20.1817 0.413852 18.1012 0 16 0ZM16 30.4C13.152 30.4 10.3679 29.5554 7.99979 27.9732C5.63173 26.3909 3.78604 24.1419 2.69614 21.5106C1.60624 18.8794 1.32107 15.984 1.8767 13.1907C2.43233 10.3974 3.80379 7.83154 5.81767 5.81766C7.83154 3.80378 10.3974 2.43232 13.1907 1.87669C15.984 1.32106 18.8794 1.60623 21.5106 2.69613C24.1419 3.78604 26.3909 5.63172 27.9732 7.99979C29.5555 10.3679 30.4 13.1519 30.4 16C30.4 19.8191 28.8829 23.4818 26.1823 26.1823C23.4818 28.8829 19.8191 30.4 16 30.4Z" fill="#0E8AFD"/>
<path d="M20.9738 11.504L15.1338 18.8L11.7658 15.432C11.6152 15.2814 11.4108 15.1968 11.1978 15.1968C10.9848 15.1968 10.7804 15.2814 10.6298 15.432C10.4792 15.5827 10.3945 15.787 10.3945 16C10.3945 16.2131 10.4792 16.4174 10.6298 16.568L14.6298 20.568C14.7831 20.7142 14.986 20.7971 15.1978 20.8H15.2458C15.3571 20.7936 15.4659 20.7639 15.5651 20.7129C15.6643 20.662 15.7517 20.5908 15.8218 20.504L22.2218 12.504C22.2883 12.4222 22.3379 12.3281 22.3678 12.227C22.3978 12.1259 22.4074 12.0199 22.3963 11.9151C22.3851 11.8103 22.3534 11.7087 22.3028 11.6162C22.2523 11.5237 22.184 11.4421 22.1018 11.376C22.0195 11.31 21.9249 11.261 21.8235 11.2317C21.7222 11.2024 21.616 11.1934 21.5112 11.2053C21.4063 11.2172 21.3049 11.2497 21.2126 11.301C21.1204 11.3523 21.0392 11.4213 20.9738 11.504Z" fill="#0E8AFD"/>
</svg>
