<svg width="9" height="9" viewBox="0 0 9 9" fill="none" xmlns="http://www.w3.org/2000/svg">
<path d="M8.98839 3.41955C8.96059 3.32958 8.88639 3.26404 8.79719 3.25051L5.9747 2.82047L4.7124 0.138418C4.6725 0.0535844 4.5902 0 4.5 0C4.4098 0 4.3275 0.0536893 4.2876 0.138418L3.02541 2.82037L0.202813 3.25051C0.113613 3.26414 0.0395132 3.32958 0.0116133 3.41955C-0.0162867 3.50942 0.00701327 3.6082 0.0715131 3.67415L2.11401 5.76175L1.63191 8.70963C1.61661 8.80274 1.65321 8.89691 1.72611 8.95249C1.76741 8.98395 1.81621 8.99989 1.86531 8.99989C1.90301 8.99989 1.94081 8.99045 1.97551 8.97136L4.5 7.57964L7.02449 8.97147C7.10439 9.01551 7.20099 9.00807 7.27389 8.95259C7.34679 8.89702 7.38339 8.80285 7.36809 8.70963L6.88599 5.76175L8.92839 3.67405C8.99299 3.60809 9.01629 3.50942 8.98839 3.41955ZM6.4663 5.49718C6.4105 5.55422 6.385 5.63644 6.3982 5.71697L6.82029 8.29752L4.6103 7.07913C4.5413 7.04106 4.4589 7.04106 4.3898 7.07913L2.17981 8.29752L2.60181 5.71687C2.61501 5.63633 2.58951 5.55412 2.53371 5.49708L0.745811 3.66965L3.2167 3.29319C3.2939 3.28145 3.3606 3.23059 3.395 3.15729L4.5 0.809535L5.605 3.15739C5.6395 3.23069 5.7062 3.28145 5.7833 3.2933L8.25409 3.66975L6.4663 5.49718Z" fill="#F5C109"/>
</svg>
