<svg width="30" height="30" viewBox="0 0 30 30" fill="none" xmlns="http://www.w3.org/2000/svg">
<path d="M15.2012 15.3999H27.0012V3.8999H15.2012V15.3999ZM16.1012 14.4999V7.5999C17.9012 7.6999 19.7012 8.4999 21.0012 9.6999C22.3012 10.9999 23.1012 12.6999 23.2012 14.3999H16.1012V14.4999ZM26.0012 4.7999V14.4999H24.1012C24.0012 12.4999 23.1012 10.5999 21.6012 9.0999C20.2012 7.6999 18.2012 6.7999 16.1012 6.6999V4.7999H26.0012Z" fill="#0E8AFD" stroke="#0E8AFD" stroke-width="0.25" stroke-miterlimit="10"/>
<path d="M23.7 28.8999V17.3999H12.8V6.8999H1V28.9999H23.7V28.8999ZM11.9 25.1999C10.1 25.0999 8.3 24.2999 7 23.0999C5.7 21.7999 4.9 20.0999 4.8 18.3999H11.9V25.1999ZM22.7 18.3999V28.0999H12.8V26.1999C14.9 26.0999 16.9 25.1999 18.3 23.7999C19.8 22.3999 20.7 20.3999 20.8 18.3999H22.7ZM19.9 18.3999C19.8 20.1999 19 21.8999 17.7 23.0999C16.4 24.3999 14.7 25.0999 12.8 25.1999V18.2999H19.9V18.3999ZM4.8 17.3999C4.9 15.6999 5.7 13.9999 7 12.6999C8.3 11.3999 10 10.6999 11.9 10.5999V17.4999H4.8V17.3999ZM1.9 7.7999H11.9V9.6999C9.8 9.7999 7.8 10.6999 6.4 12.0999C4.9 13.4999 4 15.4999 3.9 17.4999H1.9V7.7999ZM1.9 27.9999V18.2999H3.8C3.9 20.2999 4.8 22.1999 6.3 23.6999C7.8 25.0999 9.7 25.9999 11.8 26.0999V27.9999H1.9Z" fill="#0E8AFD" stroke="#0E8AFD" stroke-width="0.25" stroke-miterlimit="10"/>
<path d="M24.7012 1.9C25.6012 1.9 26.4012 2.2 27.0012 2.8C27.6012 3.4 28.0012 4.2 28.0012 5.1C28.0012 5.2 28.0012 5.3 28.1012 5.4C28.2012 5.5 28.3012 5.5 28.4012 5.5C28.5012 5.5 28.6012 5.5 28.7012 5.4C28.8012 5.3 28.8012 5.2 28.8012 5.1C28.8012 4 28.4012 2.9 27.6012 2.2C26.8012 1.4 25.7012 1 24.6012 1C24.5012 1 24.4012 1 24.3012 1.1C24.2012 1.2 24.2012 1.3 24.2012 1.4C24.2012 1.5 24.2012 1.6 24.3012 1.7C24.5012 1.8 24.6012 1.9 24.7012 1.9Z" fill="#0E8AFD" stroke="#0E8AFD" stroke-width="0.25" stroke-miterlimit="10"/>
<path d="M12.5996 5.5001C12.6996 5.5001 12.7996 5.5001 12.8996 5.4001C12.9996 5.3001 12.9996 5.2001 12.9996 5.1001C12.9996 4.2001 13.2996 3.4001 13.9996 2.8001C14.5996 2.2001 15.4996 1.9001 16.2996 1.9001C16.3996 1.9001 16.4996 1.9001 16.5996 1.8001C16.6996 1.7001 16.6996 1.6001 16.6996 1.5001C16.6996 1.4001 16.6996 1.3001 16.5996 1.2001C16.4996 1.1001 16.3996 1.1001 16.2996 1.1001C15.1996 1.1001 14.0996 1.5001 13.2996 2.3001C12.4996 3.1001 12.0996 4.1001 12.0996 5.2001C12.0996 5.3001 12.0996 5.4001 12.1996 5.5001C12.3996 5.5001 12.4996 5.5001 12.5996 5.5001Z" fill="#0E8AFD" stroke="#0E8AFD" stroke-width="0.25" stroke-miterlimit="10"/>
</svg>
