<svg width="16" height="10" viewBox="0 0 16 10" fill="none" xmlns="http://www.w3.org/2000/svg">
<path d="M8.79378 0H0.62699C0.280431 0 0 0.293101 0 0.655318C0 1.01753 0.280431 1.31064 0.62699 1.31064H8.79378C9.14034 1.31064 9.42077 1.01753 9.42077 0.655318C9.42077 0.293101 9.14034 0 8.79378 0Z" fill="#909090"/>
<path d="M6.98628 4.28906H0.62699C0.280431 4.28906 0 4.58216 0 4.94438C0 5.3066 0.280431 5.5997 0.62699 5.5997H6.98628C7.33284 5.5997 7.61327 5.3066 7.61327 4.94438C7.61327 4.58216 7.33284 4.28906 6.98628 4.28906Z" fill="#909090"/>
<path d="M5.33554 8.57812H0.62699C0.280431 8.57812 0 8.87123 0 9.23344C0 9.59566 0.280431 9.88876 0.62699 9.88876H5.33554C5.6821 9.88876 5.96253 9.59566 5.96253 9.23344C5.96253 8.87123 5.6821 8.57812 5.33554 8.57812Z" fill="#909090"/>
<path d="M14.8185 7.00514C14.5736 6.74916 14.1768 6.74916 13.9319 7.00514L13.2082 7.76157V0.673384C13.2082 0.311168 12.9277 0.0180664 12.5812 0.0180664C12.2346 0.0180664 11.9542 0.311168 11.9542 0.673384V7.76293L11.2304 7.00514C10.9855 6.74916 10.5888 6.74916 10.3438 7.00514C10.0989 7.26112 10.0989 7.67582 10.3438 7.9318L12.1366 9.80816C12.2542 9.93103 12.4134 10.0001 12.5799 10.0001C12.7465 10.0001 12.9057 9.93103 13.0232 9.80816L14.8185 7.9318C15.0634 7.67582 15.0634 7.26112 14.8185 7.00514Z" fill="#909090"/>
</svg>
