<svg width="31" height="31" viewBox="0 0 31 31" fill="none" xmlns="http://www.w3.org/2000/svg">
<path d="M29.8 21.6C30 21.4 30 21.2 30 20.9C30 20.7 29.9 20.4 29.7 20.2L26.2 16.8C26 16.6 25.8 16.5 25.5 16.5C25.2 16.5 25 16.6 24.8 16.8L23 18.6L21.3 16.8L25.2 12.9C27.1 11 27.1 7.8 25.2 5.9C23.3 4 20.1 4 18.2 5.9L14.3 9.8L12.5 8L14.3 6.2C14.5 6 14.6 5.8 14.6 5.5C14.6 5.2 14.5 5 14.3 4.8L10.8 1.3C10.6 1.1 10.4 1 10.1 1C9.8 1 9.6 1.1 9.4 1.3L4.4 6.3C4.2 6.4 4.1 6.7 4.1 7C4.1 7.3 4.2 7.5 4.4 7.7L7.9 11.2C8.1 11.4 8.3 11.5 8.6 11.5C8.9 11.5 9.1 11.4 9.3 11.2L11.1 9.4L12.9 11.2L9.4 14.7C6.6 14.1 3.5 15 1.3 17.1C1.1 17.3 1 17.6 1 17.8C1 18.1 1.1 18.3 1.3 18.5L6.2 23.4L3.8 25.8C3.4 25.8 3 25.9 2.7 26.2C2.1 26.8 2.1 27.7 2.7 28.3C3.3 28.9 4.2 28.9 4.8 28.3C5.1 28 5.2 27.6 5.2 27.2L7.6 24.8L12.5 29.7C12.7 29.9 12.9 30 13.2 30C13.5 30 13.7 29.9 13.9 29.7C16.1 27.5 16.9 24.5 16.3 21.6L19.8 18.1L21.6 19.9L19.8 21.7C19.6 21.9 19.5 22.1 19.5 22.4C19.5 22.7 19.6 22.9 19.8 23.1L23.3 26.6C23.5 26.8 23.7 26.9 24 26.9C24.3 26.9 24.5 26.8 24.7 26.6L29.8 21.6C29.7 21.7 29.8 21.7 29.8 21.6ZM27.6 21L24.1 24.5L22 22.4L25.5 18.9L27.6 21ZM13.2 27.6L3.5 17.9C6.2 15.9 10.1 16.1 12.6 18.5C15 21 15.2 24.9 13.2 27.6ZM23.8 11.5L15.7 19.6C15.3 18.7 14.7 17.9 14 17.1C13.3 16.4 12.4 15.8 11.5 15.4L19.6 7.3C20.8 6.1 22.6 6.1 23.8 7.3C24.9 8.5 24.9 10.3 23.8 11.5ZM12.2 5.6L8.7 9.1L6.5 7L10 3.5L12.2 5.6Z" fill="#0E8AFD"/>
<path d="M29.8 21.6C30 21.4 30 21.2 30 20.9C30 20.7 29.9 20.4 29.7 20.2L26.2 16.8C26 16.6 25.8 16.5 25.5 16.5C25.2 16.5 25 16.6 24.8 16.8L23 18.6L21.3 16.8L25.2 12.9C27.1 11 27.1 7.8 25.2 5.9C23.3 4 20.1 4 18.2 5.9L14.3 9.8L12.5 8L14.3 6.2C14.5 6 14.6 5.8 14.6 5.5C14.6 5.2 14.5 5 14.3 4.8L10.8 1.3C10.6 1.1 10.4 1 10.1 1C9.8 1 9.6 1.1 9.4 1.3L4.4 6.3C4.2 6.4 4.1 6.7 4.1 7C4.1 7.3 4.2 7.5 4.4 7.7L7.9 11.2C8.1 11.4 8.3 11.5 8.6 11.5C8.9 11.5 9.1 11.4 9.3 11.2L11.1 9.4L12.9 11.2L9.4 14.7C6.6 14.1 3.5 15 1.3 17.1C1.1 17.3 1 17.6 1 17.8C1 18.1 1.1 18.3 1.3 18.5L6.2 23.4L3.8 25.8C3.4 25.8 3 25.9 2.7 26.2C2.1 26.8 2.1 27.7 2.7 28.3C3.3 28.9 4.2 28.9 4.8 28.3C5.1 28 5.2 27.6 5.2 27.2L7.6 24.8L12.5 29.7C12.7 29.9 12.9 30 13.2 30C13.5 30 13.7 29.9 13.9 29.7C16.1 27.5 16.9 24.5 16.3 21.6L19.8 18.1L21.6 19.9L19.8 21.7C19.6 21.9 19.5 22.1 19.5 22.4C19.5 22.7 19.6 22.9 19.8 23.1L23.3 26.6C23.5 26.8 23.7 26.9 24 26.9C24.3 26.9 24.5 26.8 24.7 26.6L29.8 21.6ZM29.8 21.6C29.7 21.7 29.8 21.7 29.8 21.6ZM27.6 21L24.1 24.5L22 22.4L25.5 18.9L27.6 21ZM13.2 27.6L3.5 17.9C6.2 15.9 10.1 16.1 12.6 18.5C15 21 15.2 24.9 13.2 27.6ZM23.8 11.5L15.7 19.6C15.3 18.7 14.7 17.9 14 17.1C13.3 16.4 12.4 15.8 11.5 15.4L19.6 7.3C20.8 6.1 22.6 6.1 23.8 7.3C24.9 8.5 24.9 10.3 23.8 11.5ZM12.2 5.6L8.7 9.1L6.5 7L10 3.5L12.2 5.6Z" stroke="white" stroke-width="0.5" stroke-miterlimit="10"/>
</svg>
