<svg width="32" height="31" viewBox="0 0 32 31" fill="none" xmlns="http://www.w3.org/2000/svg">
<path d="M16.1992 5.4C17.0992 5.4 17.6992 4.8 17.6992 3.9C17.6992 3 16.1992 1 16.1992 1C16.1992 1 14.6992 3.1 14.6992 3.9C14.7992 4.8 15.3992 5.4 16.1992 5.4Z" fill="#0E8AFD" stroke="white" stroke-width="0.25" stroke-miterlimit="10"/>
<path d="M16.1992 25.5C15.2992 25.5 14.6992 26.1 14.6992 27C14.6992 27.9 16.1992 29.9 16.1992 29.9C16.1992 29.9 17.6992 27.8 17.6992 27C17.6992 26.1 17.0992 25.5 16.1992 25.5Z" fill="#0E8AFD" stroke="white" stroke-width="0.25" stroke-miterlimit="10"/>
<path d="M28 13.7002C27.1 13.7002 26.5 14.3002 26.5 15.2002C26.5 16.1002 27.1 16.7002 28 16.7002C28.9 16.7002 31 15.2002 31 15.2002C31 15.2002 28.9 13.7002 28 13.7002Z" fill="#0E8AFD" stroke="white" stroke-width="0.25" stroke-miterlimit="10"/>
<path d="M4 13.7002C3.1 13.7002 1 15.2002 1 15.2002C1 15.2002 3.1 16.7002 4 16.7002C4.9 16.7002 5.5 16.1002 5.5 15.2002C5.4 14.3002 4.8 13.7002 4 13.7002Z" fill="#0E8AFD" stroke="white" stroke-width="0.25" stroke-miterlimit="10"/>
<path d="M25.1008 7.9999C25.7008 7.3999 26.1008 4.8999 26.1008 4.8999C26.1008 4.8999 23.6008 5.2999 23.0008 5.8999C22.4008 6.4999 22.4008 7.3999 23.0008 7.9999C23.5008 8.3999 24.6008 8.3999 25.1008 7.9999Z" fill="#0E8AFD" stroke="white" stroke-width="0.25" stroke-miterlimit="10"/>
<path d="M6 22.8999C5.4 23.4999 5 25.9999 5 25.9999C5 25.9999 7.5 25.5999 8.1 24.9999C8.7 24.3999 8.7 23.4999 8.1 22.8999C7.6 22.3999 6.6 22.3999 6 22.8999Z" fill="#0E8AFD" stroke="white" stroke-width="0.25" stroke-miterlimit="10"/>
<path d="M23.1004 22.8999C22.5004 23.4999 22.5004 24.3999 23.1004 24.9999C23.7004 25.5999 26.2004 25.9999 26.2004 25.9999C26.2004 25.9999 25.8004 23.4999 25.2004 22.8999C24.7004 22.3999 23.7004 22.3999 23.1004 22.8999Z" fill="#0E8AFD" stroke="white" stroke-width="0.25" stroke-miterlimit="10"/>
<path d="M8.20039 8.0999C8.80039 7.4999 8.80039 6.5999 8.20039 5.9999C7.60039 5.4999 4.90039 4.8999 4.90039 4.8999C4.90039 4.8999 5.30039 7.3999 5.90039 7.9999C6.50039 8.5999 7.60039 8.4999 8.20039 8.0999Z" fill="#0E8AFD" stroke="white" stroke-width="0.25" stroke-miterlimit="10"/>
<path d="M24.6008 15.6998C24.6008 20.5998 20.6008 24.5998 15.7008 24.5998C10.8008 24.5998 6.80078 20.5998 6.80078 15.6998C6.80078 10.7998 10.8008 6.89978 15.7008 6.89978C20.6008 6.79978 24.6008 10.7998 24.6008 15.6998ZM15.8008 22.5998C19.6008 22.5998 22.7008 19.4998 22.7008 15.6998C22.7008 11.8998 19.6008 8.79978 15.8008 8.79978C12.0008 8.79978 8.90078 11.8998 8.90078 15.6998C8.90078 19.4998 12.0008 22.5998 15.8008 22.5998Z" fill="#0E8AFD" stroke="white" stroke-width="0.25" stroke-miterlimit="10"/>
</svg>
