<svg width="16" height="10" viewBox="0 0 16 10" fill="none" xmlns="http://www.w3.org/2000/svg">
<path d="M8.79573 0H0.628943C0.282384 0 0.00195312 0.293101 0.00195312 0.655318C0.00195312 1.01753 0.282384 1.31064 0.628943 1.31064H8.79573C9.14229 1.31064 9.42272 1.01753 9.42272 0.655318C9.42272 0.293101 9.14229 0 8.79573 0Z" fill="#909090"/>
<path d="M6.98824 4.28906H0.628943C0.282384 4.28906 0.00195312 4.58216 0.00195312 4.94438C0.00195312 5.3066 0.282384 5.5997 0.628943 5.5997H6.98824C7.3348 5.5997 7.61523 5.3066 7.61523 4.94438C7.61523 4.58216 7.3348 4.28906 6.98824 4.28906Z" fill="#909090"/>
<path d="M5.33749 8.57812H0.628943C0.282384 8.57812 0.00195312 8.87123 0.00195312 9.23344C0.00195312 9.59566 0.282384 9.88876 0.628943 9.88876H5.33749C5.68405 9.88876 5.96448 9.59566 5.96448 9.23344C5.96448 8.87123 5.68405 8.57812 5.33749 8.57812Z" fill="#909090"/>
<path d="M10.3456 3.01293C10.5905 3.26891 10.9873 3.26891 11.2322 3.01293L11.9559 2.2565L11.9559 9.34468C11.9559 9.7069 12.2363 10 12.5829 10C12.9295 10 13.2099 9.7069 13.2099 9.34468L13.2099 2.25513L13.9336 3.01293C14.1785 3.26891 14.5753 3.26891 14.8202 3.01293C15.0651 2.75694 15.0651 2.34225 14.8202 2.08627L13.0274 0.209906C12.9099 0.0870335 12.7507 0.0179178 12.5841 0.0179178C12.4176 0.0179179 12.2584 0.0870335 12.1408 0.209906L10.3456 2.08627C10.1006 2.34225 10.1006 2.75694 10.3456 3.01293Z" fill="#909090"/>
</svg>
