<svg width="30" height="30" viewBox="0 0 30 30" fill="none" xmlns="http://www.w3.org/2000/svg">
<path d="M3.47059 21.1176V25.5294H7.88235C8.28844 25.5294 8.61765 25.8586 8.61765 26.2647C8.61765 26.6708 8.28844 27 7.88235 27H2.73529C2.3292 27 2 26.6708 2 26.2647V21.1176C2 20.7116 2.3292 20.3824 2.73529 20.3824C3.14139 20.3824 3.47059 20.7116 3.47059 21.1176ZM21.1176 25.5294H25.5294V21.1176C25.5294 20.7116 25.8586 20.3824 26.2647 20.3824C26.6708 20.3824 27 20.7116 27 21.1176V26.2647C27 26.6708 26.6708 27 26.2647 27H21.1176C20.7116 27 20.3824 26.6708 20.3824 26.2647C20.3824 25.8586 20.7116 25.5294 21.1176 25.5294ZM25.5294 3.47059H21.1176C20.7116 3.47059 20.3824 3.14139 20.3824 2.73529C20.3824 2.3292 20.7116 2 21.1176 2H26.2647C26.6708 2 27 2.3292 27 2.73529V7.88235C27 8.28844 26.6708 8.61765 26.2647 8.61765C25.8586 8.61765 25.5294 8.28844 25.5294 7.88235V3.47059ZM3.47059 3.47059V7.88235C3.47059 8.28844 3.14139 8.61765 2.73529 8.61765C2.3292 8.61765 2 8.28844 2 7.88235V2.73529C2 2.3292 2.3292 2 2.73529 2H7.88235C8.28844 2 8.61765 2.3292 8.61765 2.73529C8.61765 3.14139 8.28844 3.47059 7.88235 3.47059H3.47059ZM7.88235 7.14706H21.1176C21.5237 7.14706 21.8529 7.47626 21.8529 7.88235V21.1176C21.8529 21.5237 21.5237 21.8529 21.1176 21.8529H7.88235C7.47626 21.8529 7.14706 21.5237 7.14706 21.1176V7.88235C7.14706 7.47626 7.47626 7.14706 7.88235 7.14706ZM8.61765 20.3824H20.3824V8.61765H8.61765V20.3824Z" fill="#0E8AFD"/>
</svg>
