<svg width="32" height="32" viewBox="0 0 32 32" fill="none" xmlns="http://www.w3.org/2000/svg">
<path fill-rule="evenodd" clip-rule="evenodd" d="M8.59752 27.052C7.73371 27.8881 6.34815 27.8802 5.49697 27.0286L4.97153 26.5029C4.12295 25.6539 4.11281 24.2654 4.94876 23.4017L5.16055 23.1829C5.78708 22.5356 6.01685 21.3394 5.66932 20.5003L5.51289 20.1227C5.16734 19.2885 4.15621 18.5996 3.26153 18.5841L3.17125 18.5826C1.97252 18.5619 1.0005 17.5757 1.00019 16.3716L1 15.6284C0.999689 14.428 1.97023 13.4381 3.17016 13.4174L3.26045 13.4159C4.15839 13.4004 5.1645 12.7162 5.5121 11.877L5.66857 11.4993C6.01418 10.6649 5.783 9.46022 5.16392 8.82061L4.948 8.59752C4.11191 7.73371 4.11979 6.34815 4.97142 5.49697L5.49712 4.97153C6.34614 4.12295 7.73465 4.11281 8.59832 4.94876L8.81713 5.16055C9.46444 5.78708 10.6606 6.01685 11.4997 5.66932L11.8773 5.51289C12.7115 5.16734 13.4004 4.15621 13.4159 3.26153L13.4174 3.17125C13.4381 1.97252 14.4243 1.0005 15.6284 1.00019L16.3716 1C17.572 0.999689 18.5619 1.97023 18.5826 3.17016L18.5841 3.26045C18.5996 4.15839 19.2838 5.1645 20.123 5.5121L20.5007 5.66857C21.3351 6.01418 22.5398 5.783 23.1794 5.16392L23.4025 4.948C24.2663 4.11191 25.6518 4.11979 26.503 4.97142L27.0285 5.49712C27.877 6.34614 27.8872 7.73465 27.0512 8.59832L26.8394 8.81713C26.2129 9.46444 25.9831 10.6606 26.3307 11.4997L26.4871 11.8773C26.8327 12.7115 27.8438 13.4004 28.7385 13.4159L28.8288 13.4174C30.0275 13.4381 30.9995 14.4243 30.9998 15.6284L31 16.3716C31.0003 17.572 30.0298 18.5619 28.8298 18.5826L28.7395 18.5841C27.8416 18.5996 26.8355 19.2838 26.4879 20.123L26.3314 20.5007C25.9858 21.3351 26.217 22.5398 26.8361 23.1794L27.052 23.4025C27.8881 24.2663 27.8802 25.6518 27.0286 26.503L26.5029 27.0285C25.6539 27.877 24.2654 27.8872 23.4017 27.0512L23.1829 26.8394C22.5356 26.2129 21.3394 25.9831 20.5003 26.3307L20.1227 26.4871C19.2885 26.8327 18.5996 27.8438 18.5841 28.7385L18.5826 28.8288C18.5619 30.0275 17.5757 30.9995 16.3716 30.9998L15.6284 31C14.428 31.0003 13.4381 30.0298 13.4174 28.8298L13.4159 28.7395C13.4004 27.8416 12.7162 26.8355 11.877 26.4879L11.4993 26.3314C10.6649 25.9858 9.46022 26.217 8.82061 26.8361L8.59752 27.052ZM13.2958 22.5284C16.9014 24.0219 21.035 22.3097 22.5284 18.7042C24.0219 15.0986 22.3097 10.965 18.7042 9.47158C15.0986 7.97811 10.965 9.69029 9.47158 13.2958C7.97811 16.9014 9.69029 21.035 13.2958 22.5284Z" stroke="#0E8AFD"/>
</svg>
