<svg width="90" height="51" viewBox="0 0 90 51" fill="none" xmlns="http://www.w3.org/2000/svg">
<rect x="4" y="2" width="86" height="43" rx="4" fill="#EEEEEE"/>
<g filter="url(#filter0_d)">
<rect x="9" y="7" width="33" height="33" rx="3" fill="white"/>
</g>
<path fill-rule="evenodd" clip-rule="evenodd" d="M74.125 29.0714H62.875C62.3575 29.0714 61.9375 28.6536 61.9375 28.1429C61.9375 27.6321 62.3575 27.2143 62.875 27.2143H74.125C74.6425 27.2143 75.0625 27.6321 75.0625 28.1429C75.0625 28.6536 74.6425 29.0714 74.125 29.0714ZM74.125 26.2857H62.875C61.8395 26.2857 61 27.1168 61 28.1429C61 29.1689 61.8395 30 62.875 30H74.125C75.1605 30 76 29.1689 76 28.1429C76 27.1168 75.1605 26.2857 74.125 26.2857ZM74.125 24.4286H62.875C62.3575 24.4286 61.9375 24.0107 61.9375 23.5C61.9375 22.9893 62.3575 22.5714 62.875 22.5714H74.125C74.6425 22.5714 75.0625 22.9893 75.0625 23.5C75.0625 24.0107 74.6425 24.4286 74.125 24.4286ZM74.125 21.6429H62.875C61.8395 21.6429 61 22.4739 61 23.5C61 24.5261 61.8395 25.3571 62.875 25.3571H74.125C75.1605 25.3571 76 24.5261 76 23.5C76 22.4739 75.1605 21.6429 74.125 21.6429ZM62.875 17.9286H74.125C74.6425 17.9286 75.0625 18.3464 75.0625 18.8571C75.0625 19.3679 74.6425 19.7857 74.125 19.7857H62.875C62.3575 19.7857 61.9375 19.3679 61.9375 18.8571C61.9375 18.3464 62.3575 17.9286 62.875 17.9286ZM62.875 20.7143H74.125C75.1605 20.7143 76 19.8832 76 18.8571C76 17.8311 75.1605 17 74.125 17H62.875C61.8395 17 61 17.8311 61 18.8571C61 19.8832 61.8395 20.7143 62.875 20.7143Z" fill="#909090"/>
<path fill-rule="evenodd" clip-rule="evenodd" d="M23.6429 18.3926C23.6429 18.1363 23.4349 17.9293 23.1786 17.9293H20.3929C20.1363 17.9293 19.9286 18.1363 19.9286 18.3926V21.179C19.9286 21.4348 20.1363 21.6435 20.3929 21.6435H23.1786C23.4349 21.6435 23.6429 21.4348 23.6429 21.179V18.3926ZM23.6429 22.5716H19.9286C19.4158 22.5716 19 22.1558 19 21.6435V17.9293C19 17.416 19.4158 17 19.9286 17H23.6429C24.1559 17 24.5714 17.416 24.5714 17.9293V21.6435C24.5714 22.1558 24.1559 22.5716 23.6429 22.5716ZM23.6429 25.8213C23.6429 25.565 23.4349 25.357 23.1786 25.357H20.3929C20.1363 25.357 19.9286 25.565 19.9286 25.8213V28.6074C19.9286 28.8637 20.1363 29.0712 20.3929 29.0712H23.1786C23.4349 29.0712 23.6429 28.8637 23.6429 28.6074V25.8213ZM23.6429 30H19.9286C19.4158 30 19 29.5842 19 29.0712V25.357C19 24.8444 19.4158 24.4284 19.9286 24.4284H23.6429C24.1559 24.4284 24.5714 24.8444 24.5714 25.357V29.0712C24.5714 29.5842 24.1559 30 23.6429 30ZM31.0714 18.3926C31.0714 18.1363 30.8634 17.9293 30.6071 17.9293H27.8214C27.5651 17.9293 27.3571 18.1363 27.3571 18.3926V21.179C27.3571 21.4348 27.5651 21.6435 27.8214 21.6435H30.6071C30.8634 21.6435 31.0714 21.4348 31.0714 21.179V18.3926ZM31.0714 22.5716H27.3571C26.8443 22.5716 26.4286 22.1558 26.4286 21.6435V17.9293C26.4286 17.416 26.8443 17 27.3571 17H31.0714C31.5845 17 32 17.416 32 17.9293V21.6435C32 22.1558 31.5845 22.5716 31.0714 22.5716ZM31.0714 25.8213C31.0714 25.565 30.8634 25.357 30.6071 25.357H27.8214C27.5651 25.357 27.3571 25.565 27.3571 25.8213V28.6074C27.3571 28.8637 27.5651 29.0712 27.8214 29.0712H30.6071C30.8634 29.0712 31.0714 28.8637 31.0714 28.6074V25.8213ZM31.0714 30H27.3571C26.8443 30 26.4286 29.5842 26.4286 29.0712V25.357C26.4286 24.8444 26.8443 24.4284 27.3571 24.4284H31.0714C31.5845 24.4284 32 24.8444 32 25.357V29.0712C32 29.5842 31.5845 30 31.0714 30Z" fill="#007ADD"/>
<defs>
<filter id="filter0_d" x="0" y="0" width="51" height="51" filterUnits="userSpaceOnUse" color-interpolation-filters="sRGB">
<feFlood flood-opacity="0" result="BackgroundImageFix"/>
<feColorMatrix in="SourceAlpha" type="matrix" values="0 0 0 0 0 0 0 0 0 0 0 0 0 0 0 0 0 0 127 0"/>
<feOffset dy="2"/>
<feGaussianBlur stdDeviation="4.5"/>
<feColorMatrix type="matrix" values="0 0 0 0 0 0 0 0 0 0 0 0 0 0 0 0 0 0 0.03 0"/>
<feBlend mode="normal" in2="BackgroundImageFix" result="effect1_dropShadow"/>
<feBlend mode="normal" in="SourceGraphic" in2="effect1_dropShadow" result="shape"/>
</filter>
</defs>
</svg>
