<svg width="90" height="51" viewBox="0 0 90 51" fill="none" xmlns="http://www.w3.org/2000/svg">
<rect y="2" width="86" height="43" rx="4" fill="#EEEEEE"/>
<g filter="url(#filter0_d)">
<rect x="48" y="7" width="33" height="33" rx="3" fill="white"/>
</g>
<path fill-rule="evenodd" clip-rule="evenodd" d="M70.125 29.0714H58.875C58.3575 29.0714 57.9375 28.6536 57.9375 28.1429C57.9375 27.6321 58.3575 27.2143 58.875 27.2143H70.125C70.6425 27.2143 71.0625 27.6321 71.0625 28.1429C71.0625 28.6536 70.6425 29.0714 70.125 29.0714ZM70.125 26.2857H58.875C57.8395 26.2857 57 27.1168 57 28.1429C57 29.1689 57.8395 30 58.875 30H70.125C71.1605 30 72 29.1689 72 28.1429C72 27.1168 71.1605 26.2857 70.125 26.2857ZM70.125 24.4286H58.875C58.3575 24.4286 57.9375 24.0107 57.9375 23.5C57.9375 22.9893 58.3575 22.5714 58.875 22.5714H70.125C70.6425 22.5714 71.0625 22.9893 71.0625 23.5C71.0625 24.0107 70.6425 24.4286 70.125 24.4286ZM70.125 21.6429H58.875C57.8395 21.6429 57 22.4739 57 23.5C57 24.5261 57.8395 25.3571 58.875 25.3571H70.125C71.1605 25.3571 72 24.5261 72 23.5C72 22.4739 71.1605 21.6429 70.125 21.6429ZM58.875 17.9286H70.125C70.6425 17.9286 71.0625 18.3464 71.0625 18.8571C71.0625 19.3679 70.6425 19.7857 70.125 19.7857H58.875C58.3575 19.7857 57.9375 19.3679 57.9375 18.8571C57.9375 18.3464 58.3575 17.9286 58.875 17.9286ZM58.875 20.7143H70.125C71.1605 20.7143 72 19.8832 72 18.8571C72 17.8311 71.1605 17 70.125 17H58.875C57.8395 17 57 17.8311 57 18.8571C57 19.8832 57.8395 20.7143 58.875 20.7143Z" fill="#007AFF"/>
<path fill-rule="evenodd" clip-rule="evenodd" d="M19.6429 18.3926C19.6429 18.1363 19.4349 17.9293 19.1786 17.9293H16.3929C16.1363 17.9293 15.9286 18.1363 15.9286 18.3926V21.179C15.9286 21.4348 16.1363 21.6435 16.3929 21.6435H19.1786C19.4349 21.6435 19.6429 21.4348 19.6429 21.179V18.3926ZM19.6429 22.5716H15.9286C15.4158 22.5716 15 22.1558 15 21.6435V17.9293C15 17.416 15.4158 17 15.9286 17H19.6429C20.1559 17 20.5714 17.416 20.5714 17.9293V21.6435C20.5714 22.1558 20.1559 22.5716 19.6429 22.5716ZM19.6429 25.8213C19.6429 25.565 19.4349 25.357 19.1786 25.357H16.3929C16.1363 25.357 15.9286 25.565 15.9286 25.8213V28.6074C15.9286 28.8637 16.1363 29.0712 16.3929 29.0712H19.1786C19.4349 29.0712 19.6429 28.8637 19.6429 28.6074V25.8213ZM19.6429 30H15.9286C15.4158 30 15 29.5842 15 29.0712V25.357C15 24.8444 15.4158 24.4284 15.9286 24.4284H19.6429C20.1559 24.4284 20.5714 24.8444 20.5714 25.357V29.0712C20.5714 29.5842 20.1559 30 19.6429 30ZM27.0714 18.3926C27.0714 18.1363 26.8634 17.9293 26.6071 17.9293H23.8214C23.5651 17.9293 23.3571 18.1363 23.3571 18.3926V21.179C23.3571 21.4348 23.5651 21.6435 23.8214 21.6435H26.6071C26.8634 21.6435 27.0714 21.4348 27.0714 21.179V18.3926ZM27.0714 22.5716H23.3571C22.8443 22.5716 22.4286 22.1558 22.4286 21.6435V17.9293C22.4286 17.416 22.8443 17 23.3571 17H27.0714C27.5845 17 28 17.416 28 17.9293V21.6435C28 22.1558 27.5845 22.5716 27.0714 22.5716ZM27.0714 25.8213C27.0714 25.565 26.8634 25.357 26.6071 25.357H23.8214C23.5651 25.357 23.3571 25.565 23.3571 25.8213V28.6074C23.3571 28.8637 23.5651 29.0712 23.8214 29.0712H26.6071C26.8634 29.0712 27.0714 28.8637 27.0714 28.6074V25.8213ZM27.0714 30H23.3571C22.8443 30 22.4286 29.5842 22.4286 29.0712V25.357C22.4286 24.8444 22.8443 24.4284 23.3571 24.4284H27.0714C27.5845 24.4284 28 24.8444 28 25.357V29.0712C28 29.5842 27.5845 30 27.0714 30Z" fill="#909090"/>
<defs>
<filter id="filter0_d" x="39" y="0" width="51" height="51" filterUnits="userSpaceOnUse" color-interpolation-filters="sRGB">
<feFlood flood-opacity="0" result="BackgroundImageFix"/>
<feColorMatrix in="SourceAlpha" type="matrix" values="0 0 0 0 0 0 0 0 0 0 0 0 0 0 0 0 0 0 127 0"/>
<feOffset dy="2"/>
<feGaussianBlur stdDeviation="4.5"/>
<feColorMatrix type="matrix" values="0 0 0 0 0 0 0 0 0 0 0 0 0 0 0 0 0 0 0.03 0"/>
<feBlend mode="normal" in2="BackgroundImageFix" result="effect1_dropShadow"/>
<feBlend mode="normal" in="SourceGraphic" in2="effect1_dropShadow" result="shape"/>
</filter>
</defs>
</svg>
